<svg width="24" height="24" viewBox="0 0 24 24" fill="none" xmlns="http://www.w3.org/2000/svg">
<g clip-path="url(#clip0_584_4129)">
<mask id="mask0_584_4129" style="mask-type:luminance" maskUnits="userSpaceOnUse" x="0" y="0" width="24" height="24">
<path d="M24 0H0V24H24V0Z" fill="white"/>
</mask>
<g mask="url(#mask0_584_4129)">
<path d="M7.5 7.66952V6.69952C7.5 4.44952 9.31 2.23952 11.56 2.02952C14.24 1.76952 16.5 3.87952 16.5 6.50952V7.88952" stroke="white" stroke-width="1.5" stroke-miterlimit="10" stroke-linecap="round" stroke-linejoin="round"/>
<path d="M9.00007 22H15C19.02 22 19.74 20.39 19.95 18.43L20.7 12.43C20.97 9.99 20.27 8 16 8H8.00007C3.73007 8 3.03007 9.99 3.30007 12.43L4.05007 18.43C4.26007 20.39 4.98007 22 9.00007 22Z" stroke="white" stroke-width="1.5" stroke-miterlimit="10" stroke-linecap="round" stroke-linejoin="round"/>
<path d="M15.4956 12H15.5031" stroke="white" stroke-width="2" stroke-linecap="round" stroke-linejoin="round"/>
<path d="M8.49463 12H8.50206" stroke="white" stroke-width="2" stroke-linecap="round" stroke-linejoin="round"/>
</g>
</g>
<defs>
<clipPath id="clip0_584_4129">
<rect width="24" height="24" fill="white"/>
</clipPath>
</defs>
</svg>
