<svg width="118" height="115" viewBox="0 0 118 115" fill="none" xmlns="http://www.w3.org/2000/svg">
<g filter="url(#filter0_d_584_3196)">
<path d="M54.7509 69.8702C54.6302 73.3614 51.8952 76.1911 48.384 76.4499C45.1144 76.6886 41.8129 76.8122 38.5748 76.8122C35.3367 76.8122 32.0382 76.6886 28.7684 76.4499C25.2569 76.1911 22.5192 73.3614 22.4014 69.8702C21.8785 54.5382 21.8776 39.1927 22.3987 23.8606C22.5194 20.3665 25.2544 17.5398 28.7656 17.2809C32.0352 17.0422 35.3367 16.9187 38.5748 16.9187C41.8129 16.9187 45.1144 17.0422 48.387 17.2809C51.8954 17.5398 54.6332 20.3667 54.7539 23.8606C54.8316 26.1153 54.8948 28.3727 54.9494 30.6359H68.1061C68.0516 28.2266 67.9826 25.8176 67.8992 23.4091C67.5512 13.1885 59.5767 4.91215 49.3504 4.16152C45.7646 3.89774 42.1703 3.76536 38.5748 3.76465C35.0175 3.76465 31.3911 3.89694 27.8022 4.16152C17.5761 4.91215 9.60142 13.1885 9.25065 23.4091C8.71826 39.0411 8.71919 54.6868 9.25341 70.3187C9.60142 80.5421 17.5759 88.8157 27.8022 89.5691C31.387 89.8329 34.9803 89.9652 38.5748 89.966C42.1351 89.966 45.7585 89.8337 49.3504 89.5691C59.5737 88.8157 67.5482 80.5421 67.8992 70.3187C67.9423 69.0332 67.9826 67.7448 68.02 66.4538H54.8574C54.8258 67.5955 54.7913 68.7342 54.7509 69.8702Z" fill="#0A766D"/>
</g>
<path d="M48.387 17.2812C46.2273 17.1231 44.0533 17.0224 41.8936 16.9678C42.9995 16.9372 44.1059 16.9209 45.2123 16.9189C48.4504 16.9189 51.7519 17.0425 55.0215 17.2812C58.5329 17.5401 61.2677 20.367 61.3884 23.8609C61.4661 26.1156 61.5293 28.373 61.5839 30.6362H54.9494C54.8948 28.373 54.8314 26.1156 54.7539 23.8609C54.6332 20.367 51.8982 17.5401 48.387 17.2812Z" fill="#085952"/>
<path d="M34.4374 89.5691C24.2127 88.8166 16.2383 80.5414 15.8886 70.3201C15.3555 54.6881 15.3549 39.0425 15.8868 23.4105C16.2369 13.1885 24.2116 4.91354 34.437 4.16221C36.9193 3.98138 39.4058 3.86303 41.894 3.80729C40.7884 3.78046 39.6826 3.76625 38.5767 3.76465C35.018 3.76465 31.393 3.89832 27.8023 4.16221C17.577 4.91377 9.60214 13.1885 9.25205 23.4105C8.72006 39.0425 8.72067 54.6881 9.2539 70.3201C9.60375 80.5414 17.578 88.8166 27.8027 89.5691C31.3879 89.833 34.9815 89.9658 38.5764 89.9671C39.6767 89.9671 40.7841 89.9498 41.8938 89.9242C39.4058 89.8684 36.9195 89.75 34.4374 89.5691Z" fill="#085952"/>
<g filter="url(#filter1_d_584_3196)">
<path d="M38.5757 105.789C29.8693 105.789 21.0894 105.536 12.324 105.035C6.02434 104.675 0.987213 99.6629 0.588733 93.3656C-0.19532 80.9873 -0.196244 68.5718 0.585967 56.1933C0.984447 49.8962 6.0218 44.8844 12.321 44.5247C21.0786 44.0246 29.8698 43.772 38.5757 43.772C47.2817 43.772 56.0732 44.0246 64.8305 44.5247C71.1299 44.8844 76.167 49.8964 76.5655 56.1933C77.3477 68.5718 77.3468 80.9873 76.5628 93.3656C76.164 99.6629 71.1272 104.675 64.8275 105.035C56.0859 105.536 47.3317 105.787 38.5757 105.789Z" fill="#0D9488"/>
</g>
<path d="M15.31 105.193C14.3135 105.147 13.3169 105.091 12.3239 105.035C6.02584 104.677 0.987327 99.6644 0.589308 93.3661C-0.19463 80.9874 -0.195784 68.5714 0.585851 56.1925C0.98387 49.8977 6.02238 44.8854 12.3204 44.5236C13.3169 44.4676 14.31 44.4118 15.3066 44.3657C11.6066 46.5363 9.05443 50.4469 8.76841 54.9887C7.93416 68.1693 7.93523 81.3895 8.77164 94.5699C9.05788 99.112 11.6101 103.022 15.31 105.193Z" fill="#E7F4F3"/>
<path d="M107.75 111.835C84.573 112.702 61.372 112.702 38.1953 111.835C34.338 111.69 31.1397 108.831 30.5115 105.022C29.4239 98.4293 29.4239 91.8365 30.5115 85.2437C31.1397 81.4352 34.338 78.5758 38.1953 78.4315C61.372 77.5645 84.573 77.5645 107.75 78.4315C111.607 78.5758 114.805 81.4352 115.433 85.2437C116.521 91.8365 116.521 98.4295 115.433 105.022C114.805 108.831 111.607 111.69 107.75 111.835Z" fill="#F9F6F9"/>
<path d="M72.9726 114.236C61.3554 114.236 49.7391 114.02 38.1299 113.587C33.4754 113.413 29.5433 109.931 28.7807 105.308C27.6668 98.5702 27.6668 91.6955 28.7807 84.958C29.5433 80.3343 33.4754 76.8522 38.1299 76.6782C61.3503 75.8137 84.5949 75.8137 107.815 76.6782C112.47 76.8522 116.402 80.3343 117.165 84.958C118.278 91.6955 118.278 98.5702 117.165 105.308C116.402 109.931 112.47 113.413 107.815 113.587C96.2062 114.02 84.5899 114.237 72.9726 114.236ZM72.9726 79.5385C61.375 79.5385 49.7776 79.7538 38.261 80.1843C35.2661 80.2963 32.7351 82.544 32.2426 85.5291C31.1912 91.8885 31.1912 98.3774 32.2426 104.737C32.7351 107.722 35.2661 109.97 38.2613 110.082C61.3943 110.943 84.5514 110.943 107.684 110.082C110.679 109.97 113.211 107.722 113.703 104.737C114.754 98.3774 114.754 91.8885 113.703 85.5291C113.211 82.544 110.679 80.2963 107.684 80.1843C96.1189 79.7531 84.5462 79.5378 72.9726 79.5385Z" fill="#CFEAE7"/>
<path d="M51.9966 90.2597C51.8815 90.0602 51.7281 89.8853 51.5453 89.745C51.3626 89.6048 51.154 89.5019 50.9314 89.4423C50.7089 89.3827 50.4768 89.3675 50.2484 89.3975C50.02 89.4276 49.7997 89.5024 49.6002 89.6176L45.3105 92.0943V87.1408C45.3105 86.6755 45.1257 86.2293 44.7967 85.9003C44.4677 85.5713 44.0214 85.3865 43.5562 85.3865C43.0909 85.3865 42.6447 85.5713 42.3157 85.9003C41.9867 86.2293 41.8018 86.6755 41.8018 87.1408V92.0943L37.5119 89.6174C37.3124 89.5022 37.0921 89.4274 36.8637 89.3973C36.6353 89.3672 36.4032 89.3824 36.1807 89.4421C35.9582 89.5017 35.7495 89.6046 35.5668 89.7448C35.384 89.8851 35.2307 90.06 35.1155 90.2595C35.0003 90.459 34.9255 90.6792 34.8954 90.9076C34.8653 91.1361 34.8805 91.3682 34.9401 91.5907C34.9998 91.8132 35.1026 92.0218 35.2429 92.2046C35.3832 92.3874 35.558 92.5407 35.7576 92.6559L40.0475 95.1327L35.7576 97.6096C35.5581 97.7248 35.3832 97.8781 35.2429 98.0609C35.1027 98.2437 34.9998 98.4523 34.9402 98.6748C34.8806 98.8974 34.8654 99.1294 34.8955 99.3579C34.9255 99.5863 35.0003 99.8065 35.1155 100.006C35.2307 100.206 35.384 100.38 35.5668 100.521C35.7496 100.661 35.9582 100.764 36.1807 100.823C36.4032 100.883 36.6353 100.898 36.8637 100.868C37.0921 100.838 37.3124 100.763 37.5119 100.648L41.8018 98.1713V103.125C41.8018 103.59 41.9867 104.036 42.3157 104.365C42.6447 104.694 43.0909 104.879 43.5562 104.879C44.0214 104.879 44.4677 104.694 44.7967 104.365C45.1257 104.036 45.3105 103.59 45.3105 103.125V98.1713L49.6002 100.648C49.7997 100.763 50.02 100.838 50.2484 100.868C50.4768 100.898 50.7089 100.883 50.9314 100.823C51.154 100.764 51.3626 100.661 51.5453 100.52C51.7281 100.38 51.8815 100.205 51.9966 100.006C52.1118 99.8063 52.1866 99.586 52.2167 99.3576C52.2468 99.1292 52.2316 98.8971 52.172 98.6746C52.1124 98.452 52.0095 98.2434 51.8692 98.0607C51.729 97.8779 51.5541 97.7245 51.3545 97.6094L47.0646 95.1325L51.3545 92.6557C51.5541 92.5405 51.7289 92.3872 51.8692 92.2045C52.0094 92.0218 52.1123 91.8132 52.1719 91.5907C52.2316 91.3682 52.2468 91.1361 52.2167 90.9078C52.1866 90.6794 52.1118 90.4592 51.9966 90.2597ZM71.3009 90.2597C71.0683 89.8568 70.6851 89.5628 70.2357 89.4424C69.7863 89.322 69.3074 89.385 68.9045 89.6176L64.6146 92.0945V87.141C64.6146 86.9106 64.5692 86.6825 64.481 86.4697C64.3929 86.2568 64.2636 86.0634 64.1007 85.9005C63.9378 85.7376 63.7444 85.6084 63.5316 85.5202C63.3187 85.4321 63.0906 85.3867 62.8602 85.3867C62.6299 85.3867 62.4017 85.4321 62.1889 85.5202C61.976 85.6084 61.7826 85.7376 61.6197 85.9005C61.4568 86.0634 61.3276 86.2568 61.2394 86.4697C61.1513 86.6825 61.1059 86.9106 61.1059 87.141V92.0945L56.816 89.6176C56.6165 89.5024 56.3962 89.4276 56.1678 89.3975C55.9394 89.3675 55.7073 89.3827 55.4848 89.4423C55.2622 89.5019 55.0536 89.6048 54.8708 89.745C54.6881 89.8853 54.5347 90.0602 54.4195 90.2597C54.3043 90.4592 54.2295 90.6795 54.1995 90.9079C54.1694 91.1363 54.1846 91.3684 54.2442 91.5909C54.3038 91.8135 54.4067 92.0221 54.547 92.2048C54.6872 92.3876 54.8621 92.541 55.0616 92.6561L59.3516 95.133L55.0616 97.6098C54.8621 97.725 54.6873 97.8784 54.547 98.0612C54.4068 98.2439 54.3039 98.4525 54.2443 98.6751C54.1847 98.8976 54.1694 99.1297 54.1995 99.3581C54.2296 99.5865 54.3044 99.8067 54.4195 100.006C54.5347 100.206 54.6881 100.381 54.8709 100.521C55.0536 100.661 55.2622 100.764 55.4848 100.824C55.7073 100.883 55.9394 100.898 56.1678 100.868C56.3962 100.838 56.6164 100.764 56.816 100.648L61.1059 98.1715V103.125C61.1059 103.59 61.2907 104.036 61.6197 104.365C61.9487 104.694 62.395 104.879 62.8602 104.879C63.3255 104.879 63.7717 104.694 64.1007 104.365C64.4297 104.036 64.6146 103.59 64.6146 103.125V98.1715L68.9045 100.648C69.104 100.764 69.3243 100.838 69.5527 100.868C69.7811 100.899 70.0132 100.883 70.2357 100.824C70.4582 100.764 70.6669 100.661 70.8496 100.521C71.0324 100.381 71.1857 100.206 71.3009 100.006C71.4161 99.8067 71.4909 99.5865 71.521 99.3581C71.5511 99.1297 71.5359 98.8976 71.4763 98.675C71.4166 98.4525 71.3138 98.2439 71.1735 98.0611C71.0333 97.8783 70.8584 97.725 70.6588 97.6098L66.3689 95.133L70.6588 92.6561C71.0618 92.4235 71.3558 92.0403 71.4762 91.5909C71.5966 91.1415 71.5336 90.6627 71.3009 90.2597ZM90.605 90.2597C90.3723 89.8568 89.9892 89.5628 89.5397 89.4424C89.0903 89.322 88.6115 89.385 88.2086 89.6176L83.9186 92.0945V87.141C83.9186 86.9106 83.8732 86.6825 83.7851 86.4697C83.6969 86.2568 83.5677 86.0634 83.4048 85.9005C83.2419 85.7376 83.0485 85.6084 82.8356 85.5202C82.6228 85.4321 82.3947 85.3867 82.1643 85.3867C81.9339 85.3867 81.7058 85.4321 81.4929 85.5202C81.2801 85.6084 81.0867 85.7376 80.9238 85.9005C80.7609 86.0634 80.6317 86.2568 80.5435 86.4697C80.4553 86.6825 80.41 86.9106 80.41 87.141V92.0945L76.12 89.6176C75.9205 89.5024 75.7003 89.4276 75.4719 89.3975C75.2434 89.3675 75.0113 89.3827 74.7888 89.4423C74.5663 89.5019 74.3577 89.6048 74.1749 89.745C73.9921 89.8853 73.8388 90.0602 73.7236 90.2597C73.6084 90.4592 73.5336 90.6795 73.5035 90.9079C73.4734 91.1363 73.4886 91.3684 73.5483 91.5909C73.6079 91.8135 73.7108 92.0221 73.851 92.2048C73.9913 92.3876 74.1662 92.541 74.3657 92.6561L78.6556 95.133L74.3657 97.6098C73.9628 97.8425 73.6688 98.2256 73.5483 98.6751C73.4279 99.1245 73.491 99.6033 73.7236 100.006C73.9562 100.409 74.3394 100.703 74.7888 100.824C75.2383 100.944 75.7171 100.881 76.12 100.648L80.41 98.1715V103.125C80.41 103.355 80.4553 103.583 80.5435 103.796C80.6317 104.009 80.7609 104.203 80.9238 104.365C81.0867 104.528 81.2801 104.658 81.4929 104.746C81.7058 104.834 81.9339 104.879 82.1643 104.879C82.3947 104.879 82.6228 104.834 82.8356 104.746C83.0485 104.658 83.2419 104.528 83.4048 104.365C83.5677 104.203 83.6969 104.009 83.7851 103.796C83.8732 103.583 83.9186 103.355 83.9186 103.125V98.1715L88.2086 100.648C88.4081 100.764 88.6283 100.838 88.8567 100.868C89.0851 100.899 89.3172 100.883 89.5398 100.824C89.7623 100.764 89.9709 100.661 90.1537 100.521C90.3365 100.381 90.4898 100.206 90.605 100.006C90.7202 99.8067 90.795 99.5865 90.8251 99.3581C90.8552 99.1297 90.84 98.8976 90.7803 98.675C90.7207 98.4525 90.6178 98.2439 90.4776 98.0611C90.3373 97.8783 90.1624 97.725 89.9629 97.6098L85.673 95.133L89.9629 92.6561C90.1624 92.541 90.3374 92.3876 90.4776 92.2049C90.6179 92.0221 90.7208 91.8135 90.7804 91.591C90.8401 91.3684 90.8552 91.1363 90.8251 90.9079C90.795 90.6795 90.7202 90.4592 90.605 90.2597ZM109.267 97.6096L104.977 95.1327L109.267 92.6559C110.106 92.1715 110.394 91.0986 109.909 90.2595C109.425 89.4204 108.352 89.133 107.513 89.6174L103.223 92.094V87.1406C103.223 86.9102 103.178 86.682 103.09 86.4692C103.001 86.2564 102.872 86.063 102.709 85.9001C102.546 85.7372 102.353 85.6079 102.14 85.5198C101.927 85.4316 101.699 85.3862 101.469 85.3862C101.238 85.3862 101.01 85.4316 100.797 85.5198C100.585 85.6079 100.391 85.7372 100.228 85.9001C100.065 86.063 99.9362 86.2564 99.848 86.4692C99.7599 86.682 99.7145 86.9102 99.7145 87.1406V92.094L95.4245 89.6172C95.225 89.5002 95.0042 89.4239 94.775 89.3925C94.5458 89.3612 94.3126 89.3756 94.089 89.4347C93.8653 89.4938 93.6556 89.5966 93.4718 89.7372C93.2881 89.8777 93.1339 90.0532 93.0182 90.2535C92.9026 90.4539 92.8277 90.6751 92.7978 90.9045C92.768 91.134 92.7838 91.367 92.8444 91.5903C92.905 91.8135 93.0092 92.0226 93.1509 92.2054C93.2926 92.3883 93.4691 92.5413 93.6702 92.6557L97.9602 95.1325L93.6702 97.6094C93.4707 97.7246 93.2958 97.8779 93.1556 98.0607C93.0154 98.2435 92.9125 98.4521 92.8529 98.6746C92.7932 98.8971 92.778 99.1292 92.8081 99.3576C92.8382 99.586 92.9129 99.8063 93.0281 100.006C93.1433 100.205 93.2967 100.38 93.4795 100.52C93.6622 100.661 93.8708 100.764 94.0934 100.823C94.3159 100.883 94.548 100.898 94.7764 100.868C95.0048 100.838 95.225 100.763 95.4245 100.648L99.7145 98.171V103.124C99.7145 103.355 99.7599 103.583 99.848 103.796C99.9362 104.009 100.065 104.202 100.228 104.365C100.391 104.528 100.585 104.657 100.797 104.745C101.01 104.833 101.238 104.879 101.469 104.879C101.699 104.879 101.927 104.833 102.14 104.745C102.353 104.657 102.546 104.528 102.709 104.365C102.872 104.202 103.001 104.009 103.09 103.796C103.178 103.583 103.223 103.355 103.223 103.124V98.171L107.513 100.648C107.712 100.763 107.933 100.838 108.161 100.868C108.389 100.898 108.622 100.883 108.844 100.823C109.067 100.763 109.275 100.66 109.458 100.52C109.641 100.38 109.794 100.205 109.909 100.006C110.024 99.8061 110.099 99.5859 110.129 99.3575C110.159 99.1291 110.144 98.8971 110.084 98.6746C110.025 98.4521 109.922 98.2435 109.782 98.0608C109.642 97.8781 109.467 97.7247 109.267 97.6096Z" fill="#0D9488"/>
<g filter="url(#filter2_d_584_3196)">
<path d="M74.333 34.2749C74.0372 34.2748 73.7463 34.1998 73.4873 34.0571C73.2282 33.9144 73.0095 33.7085 72.8514 33.4585C72.6932 33.2086 72.6009 32.9227 72.5828 32.6275C72.5648 32.3323 72.6217 32.0373 72.7483 31.77L76.132 24.616C76.331 24.1954 76.6889 23.8711 77.127 23.7143C77.5651 23.5576 78.0475 23.5813 78.4681 23.7803C78.8887 23.9793 79.213 24.3371 79.3697 24.7752C79.5264 25.2133 79.5027 25.6957 79.3037 26.1163L75.92 33.2703C75.7779 33.571 75.5532 33.825 75.2723 34.0029C74.9913 34.1808 74.6655 34.2751 74.333 34.2749ZM84.9009 47.2005C84.6419 47.2005 84.3861 47.1428 84.1521 47.0316L76.9981 43.6479C76.7899 43.5494 76.603 43.4109 76.4483 43.2402C76.2936 43.0695 76.174 42.87 76.0964 42.6531C76.0188 42.4362 75.9847 42.2061 75.996 41.976C76.0074 41.7459 76.0639 41.5203 76.1625 41.3121C76.2609 41.1037 76.3994 40.9169 76.5701 40.7621C76.7407 40.6074 76.9402 40.4878 77.1572 40.4102C77.3741 40.3325 77.6042 40.2984 77.8343 40.3098C78.0644 40.3212 78.29 40.3778 78.4983 40.4764L85.6522 43.8601C86.0122 44.0308 86.3035 44.3189 86.478 44.6771C86.6525 45.0352 86.7 45.4421 86.6125 45.8308C86.5251 46.2195 86.308 46.5669 85.9969 46.8158C85.6859 47.0648 85.2993 47.2004 84.9009 47.2005ZM78.0175 38.3388C77.6045 38.3381 77.205 38.1919 76.8893 37.9257C76.5735 37.6596 76.3617 37.2906 76.2911 36.8837C76.2205 36.4768 76.2957 36.0581 76.5034 35.7011C76.711 35.3442 77.038 35.0719 77.4266 34.9322L84.8779 32.2662C85.7898 31.9391 86.7942 32.4148 87.1206 33.327C87.4469 34.2392 86.9721 35.2431 86.0597 35.5697L78.6084 38.2358C78.4188 38.3038 78.2189 38.3386 78.0175 38.3388Z" fill="#FAFAFA"/>
</g>
<defs>
<filter id="filter0_d_584_3196" x="4.85205" y="-0.235352" width="67.2539" height="94.2012" filterUnits="userSpaceOnUse" color-interpolation-filters="sRGB">
<feFlood flood-opacity="0" result="BackgroundImageFix"/>
<feColorMatrix in="SourceAlpha" type="matrix" values="0 0 0 0 0 0 0 0 0 0 0 0 0 0 0 0 0 0 127 0" result="hardAlpha"/>
<feOffset/>
<feGaussianBlur stdDeviation="2"/>
<feComposite in2="hardAlpha" operator="out"/>
<feColorMatrix type="matrix" values="0 0 0 0 0 0 0 0 0 0 0 0 0 0 0 0 0 0 0.25 0"/>
<feBlend mode="normal" in2="BackgroundImageFix" result="effect1_dropShadow_584_3196"/>
<feBlend mode="normal" in="SourceGraphic" in2="effect1_dropShadow_584_3196" result="shape"/>
</filter>
<filter id="filter1_d_584_3196" x="-4" y="39.772" width="85.1514" height="70.0166" filterUnits="userSpaceOnUse" color-interpolation-filters="sRGB">
<feFlood flood-opacity="0" result="BackgroundImageFix"/>
<feColorMatrix in="SourceAlpha" type="matrix" values="0 0 0 0 0 0 0 0 0 0 0 0 0 0 0 0 0 0 127 0" result="hardAlpha"/>
<feOffset/>
<feGaussianBlur stdDeviation="2"/>
<feComposite in2="hardAlpha" operator="out"/>
<feColorMatrix type="matrix" values="0 0 0 0 0 0 0 0 0 0 0 0 0 0 0 0 0 0 0.25 0"/>
<feBlend mode="normal" in2="BackgroundImageFix" result="effect1_dropShadow_584_3196"/>
<feBlend mode="normal" in="SourceGraphic" in2="effect1_dropShadow_584_3196" result="shape"/>
</filter>
<filter id="filter2_d_584_3196" x="68.5796" y="19.6118" width="22.644" height="31.5889" filterUnits="userSpaceOnUse" color-interpolation-filters="sRGB">
<feFlood flood-opacity="0" result="BackgroundImageFix"/>
<feColorMatrix in="SourceAlpha" type="matrix" values="0 0 0 0 0 0 0 0 0 0 0 0 0 0 0 0 0 0 127 0" result="hardAlpha"/>
<feOffset/>
<feGaussianBlur stdDeviation="2"/>
<feComposite in2="hardAlpha" operator="out"/>
<feColorMatrix type="matrix" values="0 0 0 0 0 0 0 0 0 0 0 0 0 0 0 0 0 0 0.25 0"/>
<feBlend mode="normal" in2="BackgroundImageFix" result="effect1_dropShadow_584_3196"/>
<feBlend mode="normal" in="SourceGraphic" in2="effect1_dropShadow_584_3196" result="shape"/>
</filter>
</defs>
</svg>
